PathFileType	4	(X/Y/Z)	/Users/itak/Documents/Research/Walk-IL/dataset/trc/00252_00009.trc
DataRate	CameraRate	NumFrames	NumMarkers	Units	OrigDataRate	OrigDataStartFrame	OrigNumFrames
100.000000	100.000000	4	53	mm	100.000000	60	482
Frame#	Time	RPSI			LPSI			L3			STRN			T10			C7			CLAV			RBAK			LBAK			LSHO			LUPA			LAEL			LAOL			LWTS			LWPS			LFRA			LIFD			LHPS			LHTS			RSHO			RUPA			RAEL			RAOL			RWTS			RWPS			RFRA			RIFD			RHTS			RHPS			RBHD			LFHD			RFHD			LBHD			LHIP			RHIP			RASI			LASI			LKNE			LTHI			LANK			LTIP			LTOE			LMT1			LMT5			LHEE			RKNE			RTHI			RANK			RTIP			RTOE			RMT1			RMT5			RHEE			
		X1	Y1	Z1	X2	Y2	Z2	X3	Y3	Z3	X4	Y4	Z4	X5	Y5	Z5	X6	Y6	Z6	X7	Y7	Z7	X8	Y8	Z8	X9	Y9	Z9	X10	Y10	Z10	X11	Y11	Z11	X12	Y12	Z12	X13	Y13	Z13	X14	Y14	Z14	X15	Y15	Z15	X16	Y16	Z16	X17	Y17	Z17	X18	Y18	Z18	X19	Y19	Z19	X20	Y20	Z20	X21	Y21	Z21	X22	Y22	Z22	X23	Y23	Z23	X24	Y24	Z24	X25	Y25	Z25	X26	Y26	Z26	X27	Y27	Z27	X28	Y28	Z28	X29	Y29	Z29	X30	Y30	Z30	X31	Y31	Z31	X32	Y32	Z32	X33	Y33	Z33	X34	Y34	Z34	X35	Y35	Z35	X36	Y36	Z36	X37	Y37	Z37	X38	Y38	Z38	X39	Y39	Z39	X40	Y40	Z40	X41	Y41	Z41	X42	Y42	Z42	X43	Y43	Z43	X44	Y44	Z44	X45	Y45	Z45	X46	Y46	Z46	X47	Y47	Z47	X48	Y48	Z48	X49	Y49	Z49	X50	Y50	Z50	X51	Y51	Z51	X52	Y52	Z52	X53	Y53	Z53	

61	0.6	-1624.87890625	1056.475341796875	-344.1958923339844	-1614.093994140625	1063.337280273438	-463.6576538085938	-1620.763793945312	1137.927368164062	-425.1145935058594	-1367.353149414062	1322.310302734375	-399.6802978515625	-1620.830078125	1264.810424804688	-425.5947570800781	-1556.971923828125	1525.643920898438	-430.5491027832031	-1390.524291992188	1440.961059570312	-403.7419738769531	-1639.207153320312	1387.376953125	-364.893310546875	-1562.948120117188	1485.204711914062	-542.0291748046875	-1466.676513671875	1483.543334960938	-583.2803955078125	-1481.372192382812	1365.44140625	-664.0803833007812	-1446.253662109375	1156.274291992188	-687.0756225585938	-1527.445556640625	1133.744140625	-662.9788818359375	-1343.42578125	953.1452026367188	-568.9088134765625	-1333.461791992188	924.9662475585938	-651.1468505859375	-1402.718627929688	1054.66943359375	-679.8729248046875	-1294.421875	766.072998046875	-545.3018188476562	-1300.96875	843.8494873046875	-628.8530883789062	-1282.123657226562	862.4351806640625	-563.9849243164062	-1522.468627929688	1492.419189453125	-252.8950347900391	-1553.133178710938	1431.653076171875	-187.265625	-1593.630981445312	1153.947143554688	-140.5890960693359	-1614.6923828125	1146.269653320312	-233.4530944824219	-1459.029052734375	933.127685546875	-165.3416595458984	-1521.427001953125	922.0502319335938	-105.7662887573242	-1571.444702148438	1084.360961914062	-123.5143890380859	-1453.338745117188	738.617431640625	-166.3672332763672	-1428.44287109375	811.6985473632812	-144.6066589355469	-1486.359497070312	813.2171020507812	-100.8607177734375	-1533.177978515625	1676.91357421875	-397.5046997070312	-1312.869018554688	1729.124877929688	-421.10888671875	-1346.531494140625	1728.862182617188	-327.1934509277344	-1446.45556640625	1685.1494140625	-507.5782470703125	-1504.01708984375	998.4934692382812	-596.0467529296875	-1538.874145507812	1012.435729980469	-228.563232421875	-1437.36376953125	1053.229248046875	-257.7056579589844	-1405.587646484375	1036.313110351562	-537.3684692382812	-1480.404663085938	510.0769958496094	-555.3893432617188	-1478.915649414062	654.3821411132812	-586.0745239257812	-1567.562622070312	38.61865234375	-554.189453125	-1532.372680664062	288.406982421875	-566.197265625	-1357.237670898438	47.54087066650391	-487.0293884277344	-1427.288818359375	43.31198501586914	-447.4579772949219	-1439.20703125	39.53009796142578	-564.5423583984375	-1632.420043945312	44.26343536376953	-505.4600830078125	-1519.863525390625	517.4088745117188	-276.3033752441406	-1490.74658203125	783.8525390625	-222.9653778076172	-1600.156005859375	40.81021499633789	-322.2196655273438	-1517.847290039062	401.5843505859375	-296.1115417480469	-1384.5712890625	47.76912307739258	-333.9965515136719	-1434.066772460938	41.69363021850586	-385.4196166992188	-1494.067504882812	42.93010330200195	-282.1073913574219	-1653.667846679688	36.70135498046875	-388.6114807128906	
62	0.61	-1624.475463867188	1056.16259765625	-342.885986328125	-1613.988037109375	1063.163208007812	-462.3464660644531	-1620.510131835938	1138.139892578125	-423.8150634765625	-1366.584716796875	1321.976928710938	-398.7674255371094	-1620.267211914062	1265.037231445312	-424.3813171386719	-1555.8046875	1525.67822265625	-429.4714050292969	-1389.500366210938	1440.654174804688	-402.8245239257812	-1638.268310546875	1387.62890625	-363.6752624511719	-1561.933715820312	1485.222778320312	-540.9862670898438	-1465.656494140625	1483.335083007812	-582.2485961914062	-1480.389038085938	1365.207641601562	-662.8547973632812	-1444.906494140625	1156.0771484375	-685.64697265625	-1526.128784179688	1133.432861328125	-661.75244140625	-1341.822387695312	953.4498901367188	-566.7601318359375	-1331.984375	925.095458984375	-648.9656982421875	-1401.175903320312	1054.561157226562	-678.1000366210938	-1293.225708007812	766.2691040039062	-542.655517578125	-1299.39501953125	843.9691162109375	-626.3775634765625	-1280.661865234375	862.6163330078125	-561.4995727539062	-1521.120971679688	1492.39453125	-251.8585357666016	-1551.815673828125	1431.716918945312	-186.1853179931641	-1592.94677734375	1154.174438476562	-139.2138366699219	-1614.17822265625	1146.489501953125	-232.015625	-1459.218017578125	932.8896484375	-164.0707397460938	-1521.440551757812	922.04931640625	-104.3368148803711	-1570.903564453125	1084.522583007812	-122.1164779663086	-1454.123413085938	738.2848510742188	-164.9218292236328	-1428.924438476562	811.2850341796875	-143.3190307617188	-1486.696899414062	813.08251953125	-99.42289733886719	-1531.7392578125	1676.863647460938	-396.440185546875	-1311.4013671875	1728.7490234375	-420.35302734375	-1344.868774414062	1728.563842773438	-326.4046325683594	-1445.138427734375	1684.955078125	-506.6409301757812	-1504.109985351562	998.5397338867188	-594.958251953125	-1538.339111328125	1012.232971191406	-227.4285736083984	-1436.817138671875	1053.108154296875	-256.75390625	-1405.62158203125	1036.461547851562	-536.4794311523438	-1478.59375	510.1446228027344	-554.5158081054688	-1477.847290039062	654.467529296875	-585.2230224609375	-1567.5615234375	38.68640899658203	-554.1497192382812	-1531.271484375	288.4073181152344	-565.5458374023438	-1357.245727539062	47.54710006713867	-487.0304260253906	-1427.29052734375	43.28208923339844	-447.4333190917969	-1439.2060546875	39.53797149658203	-564.513671875	-1632.4111328125	44.27956771850586	-505.4028930664062	-1519.236450195312	517.2166137695312	-275.7014770507812	-1489.900146484375	783.566650390625	-222.1912384033203	-1600.1552734375	40.72526550292969	-322.1559448242188	-1517.329711914062	401.3274230957031	-295.6782836914062	-1384.590942382812	47.78553771972656	-334.044677734375	-1434.08544921875	41.68498992919922	-385.4369201660156	-1494.064697265625	42.92870712280273	-282.0997619628906	-1653.68798828125	36.65578460693359	-388.54150390625	
63	0.62	-1624.05712890625	1055.835205078125	-341.5474853515625	-1613.90380859375	1062.974243164062	-461.0137329101562	-1620.262939453125	1138.339477539062	-422.4879455566406	-1365.812622070312	1321.617431640625	-397.8424682617188	-1619.695190429688	1265.263671875	-423.1392211914062	-1554.598266601562	1525.68359375	-428.3625183105469	-1388.465942382812	1440.336303710938	-401.89599609375	-1637.301391601562	1387.8740234375	-362.4336853027344	-1560.90185546875	1485.229858398438	-539.9329223632812	-1464.622924804688	1483.09716796875	-581.2101440429688	-1479.388671875	1364.940307617188	-661.5875244140625	-1443.5537109375	1155.849853515625	-684.1718139648438	-1524.818481445312	1133.103393554688	-660.4954223632812	-1340.321411132812	953.657958984375	-564.604248046875	-1330.533447265625	925.1692504882812	-646.7661743164062	-1399.660034179688	1054.419921875	-676.2933349609375	-1292.1650390625	766.3920288085938	-540.0421142578125	-1297.872436523438	844.0305786132812	-623.9035034179688	-1279.3017578125	862.7169799804688	-558.9857788085938	-1519.726318359375	1492.356811523438	-250.8223876953125	-1550.457275390625	1431.775268554688	-185.0919189453125	-1592.193969726562	1154.399169921875	-137.8087005615234	-1613.61279296875	1146.698974609375	-230.5463714599609	-1459.338989257812	932.6380615234375	-162.7750244140625	-1521.384765625	922.0361328125	-102.8676300048828	-1570.285400390625	1084.679565429688	-120.6891555786133	-1454.887939453125	737.9454956054688	-163.449951171875	-1429.387329101562	810.85009765625	-142.0093688964844	-1486.991577148438	812.9710083007812	-97.94466400146484	-1530.271240234375	1676.796630859375	-395.3409729003906	-1309.910034179688	1728.346069335938	-419.5849914550781	-1343.176147460938	1728.224365234375	-325.5940246582031	-1443.810668945312	1684.752807617188	-505.6871032714844	-1504.246215820312	998.5645751953125	-593.8529663085938	-1537.742797851562	1012.020812988281	-226.2616271972656	-1436.250244140625	1052.971801757812	-255.7973327636719	-1405.658569335938	1036.579711914062	-535.5986328125	-1476.525512695312	510.1995849609375	-553.6119995117188	-1476.644653320312	654.5272216796875	-584.340576171875	-1567.565185546875	38.76255416870117	-554.09619140625	-1530.0146484375	288.3929748535156	-564.8705444335938	-1357.252075195312	47.55370712280273	-487.0338134765625	-1427.290893554688	43.24988174438477	-447.4112548828125	-1439.205444335938	39.5452995300293	-564.48974609375	-1632.39208984375	44.30157852172852	-505.3368530273438	-1518.596557617188	517.0114135742188	-275.0655212402344	-1488.99462890625	783.2913208007812	-221.3993682861328	-1600.15380859375	40.63456726074219	-322.0858764648438	-1516.814819335938	401.0635070800781	-295.2249145507812	-1384.608764648438	47.79983139038086	-334.0924987792969	-1434.103515625	41.6771354675293	-385.4556884765625	-1494.064086914062	42.92192840576172	-282.0827941894531	-1653.708740234375	36.60721206665039	-388.4473876953125	
64	0.63	-1623.61572265625	1055.494384765625	-340.1829528808594	-1613.8310546875	1062.766845703125	-459.6640319824219	-1620.020751953125	1138.521240234375	-421.1390991210938	-1365.04248046875	1321.227172851562	-396.9040832519531	-1619.11181640625	1265.484375	-421.8713684082031	-1553.3544921875	1525.658325195312	-427.2265930175781	-1387.420776367188	1440.002075195312	-400.9580078125	-1636.308715820312	1388.1064453125	-361.1721801757812	-1559.854614257812	1485.223022460938	-538.870849609375	-1463.577514648438	1482.827026367188	-580.1646118164062	-1478.374877929688	1364.639526367188	-660.285400390625	-1442.207275390625	1155.59228515625	-682.662109375	-1523.522705078125	1132.755859375	-659.2174072265625	-1338.919189453125	953.7706909179688	-562.4507446289062	-1329.103149414062	925.1831665039062	-644.5565795898438	-1398.179809570312	1054.244018554688	-674.4660034179688	-1291.2392578125	766.4563598632812	-537.466796875	-1296.402709960938	844.0320434570312	-621.44091796875	-1278.04248046875	862.7314453125	-556.4619140625	-1518.286010742188	1492.301635742188	-249.7889404296875	-1549.0615234375	1431.824096679688	-183.9870147705078	-1591.369995117188	1154.61767578125	-136.3797149658203	-1612.997802734375	1146.893920898438	-229.0525665283203	-1459.392822265625	932.3751220703125	-161.45654296875	-1521.253173828125	922.013671875	-101.3597412109375	-1569.595458984375	1084.829345703125	-119.2391204833984	-1455.624633789062	737.6148681640625	-161.9534149169922	-1429.820434570312	810.4083251953125	-140.6746368408203	-1487.241943359375	812.8797607421875	-96.43074798583984	-1528.772094726562	1676.710205078125	-394.2136535644531	-1308.392944335938	1727.910034179688	-418.8064880371094	-1341.46337890625	1727.836791992188	-324.7615966796875	-1442.467407226562	1684.536987304688	-504.7182922363281	-1504.424560546875	998.5557861328125	-592.7353515625	-1537.095092773438	1011.797790527344	-225.0735931396484	-1435.658447265625	1052.815551757812	-254.8387145996094	-1405.693359375	1036.651489257812	-534.7228393554688	-1474.16455078125	510.2357788085938	-552.678466796875	-1475.287109375	654.5514526367188	-583.4237670898438	-1567.5703125	38.85122680664062	-554.0223388671875	-1528.580200195312	288.3612670898438	-564.1765747070312	-1357.253540039062	47.55780029296875	-487.0388793945312	-1427.287963867188	43.21225357055664	-447.3913269042969	-1439.2041015625	39.54889297485352	-564.4713134765625	-1632.3583984375	44.33851623535156	-505.2583618164062	-1517.9560546875	516.8020629882812	-274.3941345214844	-1488.027099609375	783.0353393554688	-220.5903930664062	-1600.154663085938	40.53800582885742	-322.009521484375	-1516.313720703125	400.8020324707031	-294.7388000488281	-1384.625854492188	47.81219863891602	-334.137451171875	-1434.123413085938	41.67110824584961	-385.4732666015625	-1494.067749023438	42.90870666503906	-282.0548400878906	-1653.73291015625	36.55565643310547	-388.3284606933594	
